<?xml version="1.0" encoding="UTF-8"?>
<svg id="Capa_2" data-name="Capa 2" xmlns="http://www.w3.org/2000/svg" viewBox="0 0 630.16 144.33">
  <defs>
    <style>
      .cls-1 {
        fill: #c9110d;
      }

      .cls-1, .cls-2, .cls-3 {
        stroke-width: 0px;
      }

      .cls-2 {
        fill: #000001;
      }

      .cls-3 {
        fill: #fd4a60;
      }
    </style>
  </defs>
  <g>
    <path class="cls-2" d="M21.63,94.77h8.73l4.47-54.59h-8.92v-7.64h19.82l17.93,42.61c.64,1.66,1.18,3.32,1.6,5.05h.19c.42-1.73.96-3.39,1.6-5.05l17.96-42.61h19.82v7.64h-8.98l4.47,54.59h8.73v7.73h-26.94v-7.73h8.44l-3.16-41.81c0-1.92.1-3.84.29-5.75h-.29c-.42,1.82-.96,3.61-1.6,5.34l-16.04,36.76h-8.73l-16.08-36.76c-.64-1.76-1.18-3.55-1.6-5.34h-.29c.22,1.92.32,3.84.29,5.75l-3.16,41.81h8.44v7.73h-26.98v-7.73Z"/>
    <path class="cls-2" d="M144.04,71.7h3.16v-1.89c0-7.93-4.57-10.71-10.71-10.71-5.18.19-10.16,1.89-14.38,4.86l-3.87-6.84c5.56-3.93,12.21-6.04,19.02-5.94,12.78,0,19.53,6.65,19.53,19.34v22.41c-.13,1.05.61,2.05,1.66,2.17h5.59v7.45h-10c-4.47,0-6.23-2.17-6.23-5.43v-.7c0-1.12.13-2.21.38-3.26h-.19c-2.97,6.46-9.43,10.61-16.56,10.61-8.31,0-16.65-4.86-16.65-15.15,0-15.76,20.9-16.84,29.21-16.84l.03-.06ZM133.53,96.27c8.53,0,13.78-8.73,13.78-16.24v-2.08h-2.49c-4.57,0-20.33.19-20.33,9.81-.03,4.67,3.71,8.5,8.37,8.53h.64l.03-.03Z"/>
    <path class="cls-2" d="M172.49,59.81h-8.44v-7.45h8.63v-13.78h9.43v13.78h11.99v7.45h-11.99v23.49c0,10.2,6.94,11.51,10.71,11.51,1.37,0,2.27-.1,2.27-.1v8.02c-1.15.13-2.3.19-3.48.19-6.33,0-19.11-1.98-19.11-18.73v-24.39Z"/>
    <path class="cls-2" d="M200.33,95.06h7.93v-55.07h-8.44v-7.45h17.93v25.95c0,1.41-.1,2.78-.29,4.16h.19c3.55-7.1,10.8-11.57,18.73-11.51,11.79,0,17.23,6.46,17.23,19.24v24.67h7.83v7.45h-17.42v-29.92c0-7.03-1.5-12.59-9.52-12.59-9.81,0-16.75,8.31-16.75,19.02v16.04h7.93v7.45h-25.38v-7.45h.03Z"/>
    <path class="cls-2" d="M275.15,94.71h8.79v-53.98h-16.4v6.97h-8.6v-15.05h59.9v15.05h-8.6v-6.97h-16.4v53.98h8.79v7.7h-27.49v-7.7Z"/>
    <path class="cls-2" d="M322.84,115.29c4.19-.22,7.86-2.97,9.2-6.94l2.08-4.95-17.55-43.6h-6.33v-7.45h22.88v7.45h-6.65l11.19,29.82c.45,1.41.74,2.88.89,4.35h.29c.29-1.47.67-2.94,1.18-4.35l11.09-29.82h-6.46v-7.45h22.21v7.45h-6.23l-19.82,50.63c-2.46,7.67-9.59,12.88-17.64,12.88-3.84,0-7.57-1.09-10.8-3.16l3.26-7.22c2.08,1.53,4.57,2.37,7.13,2.37h.06Z"/>
    <path class="cls-2" d="M379.54,114.88v-52.9c.13-1.05-.61-2.05-1.66-2.17h-6.65v-7.45h11.09c4.47,0,6.14,1.98,6.14,4.95v.38c0,.96-.06,1.92-.19,2.88h.19c3.32-6.14,9.88-9.81,16.84-9.43,13.49,0,21.99,10.71,21.99,26.27s-9.62,26.27-22.69,26.27c-6.33.1-12.24-3.13-15.57-8.53h-.19c.19,1.44.32,2.91.29,4.35v15.34h7.93v7.45h-25.38v-7.45h7.83l.03.03ZM403.13,95.35c7.93,0,14.48-6.46,14.48-17.83s-5.85-17.93-14.25-17.93c-7.45,0-14.38,5.24-14.38,18.03,0,8.92,4.86,17.74,14.19,17.74h-.03Z"/>
    <path class="cls-2" d="M459.22,51.18c14.25,0,21.7,10.52,21.7,23.49,0,1.28-.29,3.68-.29,3.68h-36.66c-.1,9.33,7.38,16.94,16.72,17.04h.64c5.47-.16,10.74-2.14,14.96-5.66l3.96,7.03c-5.5,4.51-12.4,6.97-19.53,6.94-14.1.58-25.98-10.39-26.56-24.48v-1.79c0-15.95,10.8-26.24,25.06-26.24h0ZM471.01,72.18c-.29-8.82-5.66-13.36-11.99-13.36-7.61,0-13.97,5.79-14.67,13.36h26.66Z"/>
  </g>
  <path class="cls-3" d="M544.94,110.47c-3.58,0-6.86-2.05-8.48-5.24l-19.57-38.92c-2.22-4.73-.21-10.4,4.56-12.66,4.6-2.17,10.06-.34,12.45,4.14l9.29,18.46,12.41-37.22c1.75-4.95,7.16-7.55,12.15-5.8,4.86,1.71,7.46,6.95,5.93,11.85l-19.65,58.92c-1.24,3.62-4.52,6.18-8.36,6.48h-.72Z"/>
  <path class="cls-1" d="M569.92,51.77c-2.09,0-4.18-.09-6.22-.26-5.24-.43-9.12-5.03-8.7-10.27.43-5.24,5.03-9.12,10.27-8.7h.17c12.15.3,24.26-1.41,35.85-4.99,5.03-1.58,10.36,1.24,11.89,6.27,1.58,5.03-1.24,10.36-6.27,11.89h0c-12.02,3.62-24.47,5.67-37.05,6.05h.04Z"/>
</svg>